<svg width="85" height="98" viewBox="0 0 85 98" fill="none" xmlns="http://www.w3.org/2000/svg">
<rect y="70" width="16" height="28" rx="5" fill="#E54C41"/>
<rect x="46" y="74" width="16" height="24" rx="5" fill="#3FA95B"/>
<rect x="46" y="29" width="16" height="17" rx="5" fill="#3FA95B"/>
<rect x="46" y="50" width="16" height="20" rx="5" fill="#3FA95B"/>
<rect x="46" y="74" width="16" height="24" rx="5" fill="#3FA95B"/>
<rect x="46" y="25" width="16" height="21" rx="5" fill="#3FA95B"/>
<rect x="46" y="50" width="16" height="20" rx="5" fill="#3FA95B"/>
<rect x="69" y="80" width="16" height="18" rx="5" fill="#4C88EF"/>
<rect x="69" y="45" width="16" height="31" rx="5" fill="#4C88EF"/>
<rect x="69" width="16" height="41" rx="5" fill="#4C88EF"/>
<rect x="23" y="82" width="16" height="16" rx="5" fill="#F9BE15"/>
<rect x="23" y="45" width="16" height="33" rx="5" fill="#F9BE15"/>
</svg>
